:version 1.10
:name ASF
:units
  mass 1
  length 1
  angle deg
:documentation
  ASF file generated by Kaydara
:root
  axis xyz
  order  tx ty tz rx ry rz
  position 0 0 0
  orientation 0 0 0
:bonedata
  begin
    id 1
    name RightUpLegDummy
    direction -1 2.30186e-007 8.31532e-007
    length 4.04083
    axis 0 0 0 xyz
  end
  begin
    id 2
    name RightUpLeg
    direction -0.000919234 -0.999985 0.00544864
    length 17.4221
    axis -3.80308 -0.00076134 -0.0523649 xyz
    dof rx ry rz
  end
  begin
    id 3
    name RightLeg
    direction -0.000919271 -0.999984 -0.00555045
    length 17.1239
    axis 4.00314 0.0181274 -0.183583 xyz
    dof rx ry rz
  end
  begin
    id 4
    name RightFoot
    direction -2.57843e-005 -4.04509e-007 1
    length 6.72091
    axis 8.18909e-005 -0.122003 -0.403008 xyz
    dof rx ry rz
  end
  begin
    id 5
    name RightToes
    direction 0.00116825 -0.014069 0.9999
    length 3.85082
    axis 0.000514414 0.540638 -0.356797 xyz
    dof rx ry rz
  end
  begin
    id 6
    name SpineDummy
    direction 0.0168869 0.966876 -0.254689
    length 6.99894
    axis 0 0 0 xyz
  end
  begin
    id 7
    name Spine
    direction -0.0132008 0.999903 0.00446247
    length 11.1999
    axis -0.00148109 0.00725429 0.756411 xyz
    dof rx ry rz
  end
  begin
    id 8
    name Spine1
    direction 0 0 0
    length 0
    axis -0.000934958 0.0245693 1.46543 xyz
    dof rx ry rz
  end
  begin
    id 9
    name HEadDummy
    direction -0.0255732 0.999672 0.00128215
    length 3.43865
    axis -0.000934958 0.0245693 1.46543 xyz
  end
  begin
    id 10
    name HEad
    direction -0.0472656 0.980052 0.19304
    length 5.12695
    axis -0.000934954 0.0245693 1.46543 xyz
    dof rx ry rz
  end
  begin
    id 11
    name LeftShoulder1Dummy
    direction 0.953098 0.301717 -0.023914
    length 3.68488
    axis -0.000934958 0.0245693 1.46543 xyz
  end
  begin
    id 12
    name LeftShoulder1
    direction 0.962466 0.271167 0.0112566
    length 3.13809
    axis -0.000934958 0.0245693 1.46543 xyz
    dof rx ry rz
  end
  begin
    id 13
    name LeftArm
    direction 0.999943 0.00455037 -0.00961766
    length 11.3419
    axis -23.1648 0.685459 1.22814 xyz
    dof rx ry rz
  end
  begin
    id 14
    name LeftForeArm
    direction 0.999332 0.0131969 0.0340885
    length 8.70632
    axis -9.90633 0.618216 0.0826942 xyz
    dof rx ry rz
  end
  begin
    id 15
    name LeftHand
    direction 0.994373 -0.0366703 0.0993905
    length 5.32135
    axis 0.00675269 0.680415 0.445699 xyz
    dof rx ry rz
  end
  begin
    id 16
    name RightShoulderDummy
    direction -0.967298 0.252589 -0.0230903
    length 3.68488
    axis -0.000934958 0.0245693 1.46543 xyz
  end
  begin
    id 17
    name RightShoulder
    direction -0.975062 0.221602 0.0120823
    length 3.13809
    axis 0.216257 0.0246515 1.45863 xyz
    dof rx ry rz
  end
  begin
    id 18
    name RightArm
    direction -0.99886 -0.00851186 -0.0469687
    length 10.3947
    axis -23.196 0.23503 -0.532632 xyz
    dof rx ry rz
  end
  begin
    id 19
    name RightForeArm
    direction -0.99909 0.00114866 0.0426317
    length 8.68355
    axis -9.91764 -0.134943 0.610517 xyz
    dof rx ry rz
  end
  begin
    id 20
    name RightHand
    direction -0.992888 -0.0489538 0.10852
    length 5.28593
    axis -0.00275396 -0.197403 0.246414 xyz
    dof rx ry rz
  end
  begin
    id 21
    name LeftUpLegDummy
    direction 1 -2.30186e-007 -8.31532e-007
    length 4.04083
    axis 0 0 0 xyz
  end
  begin
    id 22
    name LeftUpLeg
    direction -0.000920097 -1 2.79241e-006
    length 17.4221
    axis -3.48782 0.00143434 -0.0532288 xyz
    dof rx ry rz
  end
  begin
    id 23
    name LeftLeg
    direction -0.000920097 -1 2.7912e-006
    length 17.1239
    axis 3.68162 -0.00806512 -0.0529896 xyz
    dof rx ry rz
  end
  begin
    id 24
    name LeftFoot
    direction -2.57845e-005 -3.987e-007 1
    length 6.72091
    axis 3.02372e-005 -0.00147829 -0.214229 xyz
    dof rx ry rz
  end
  begin
    id 25
    name LeftToes
    direction 0.00813577 -0.00488255 0.999955
    length 3.85048
    axis 3.89895e-005 -0.0014783 -0.214229 xyz
    dof rx ry rz
  end
:hierarchy
  begin
    root RightUpLegDummy SpineDummy LeftUpLegDummy
    RightUpLegDummy RightUpLeg
    RightUpLeg RightLeg
    RightLeg RightFoot
    RightFoot RightToes
    SpineDummy Spine
    Spine Spine1
    Spine1 HEadDummy LeftShoulder1Dummy RightShoulderDummy
    HEadDummy HEad
    LeftShoulder1Dummy LeftShoulder1
    LeftShoulder1 LeftArm
    LeftArm LeftForeArm
    LeftForeArm LeftHand
    RightShoulderDummy RightShoulder
    RightShoulder RightArm
    RightArm RightForeArm
    RightForeArm RightHand
    LeftUpLegDummy LeftUpLeg
    LeftUpLeg LeftLeg
    LeftLeg LeftFoot
    LeftFoot LeftToes
  end

:SAMPLES-PER-SECOND 30
:FULLY-SPECIFIED
:DEGREES
45
root  -35.9847 34.7101 8.8244 -169.418 80.8926 -179.211
RightUpLeg  -8.62033 -14.9859 -1.05308
RightLeg  5.42876 -0.919361 -0.0269272
RightFoot  4.95616 0.0231482 0.0537651
RightToes  -25.0355 -0.110166 -0.215086
Spine  -2.06277 0.0899481 0.237999
Spine1  -4.20878 0.262848 0.9872
HEad  -67.8562 -4.54707 6.25918
LeftShoulder1  -1.94126e-019 -3.10601e-018 -2.51263e-017
LeftArm  -4.01895 24.4491 -79.8108
LeftForeArm  30.4311 -21.0876 -3.443
LeftHand  -0.30949 -0.672456 5.99245
RightShoulder  -4.96962e-017 0 -2.36833e-017
RightArm  -27.7185 -23.3437 76.0389
RightForeArm  54.2796 12.9521 1.40834
RightHand  -0.311437 -1.48505 -9.12614
LeftUpLeg  -7.9419 3.02364 1.41104
LeftLeg  6.0455 13.7244 0.560258
LeftFoot  4.58135 0.0142896 1.23193
LeftToes  -21.4188 1.83942e-006 5.51297e-008
46
root  -35.9753 34.7189 8.83765 -169.237 80.9982 -179.108
RightUpLeg  -8.6329 -14.9298 -0.999496
RightLeg  5.2773 -0.881572 -0.0234592
RightFoot  5.02239 0.0234277 0.0497714
RightToes  -24.9805 -0.109895 -0.214975
Spine  -2.04256 0.140745 0.258061
Spine1  -4.1654 0.366008 1.03081
HEad  -68.0056 -4.43111 6.1328
LeftShoulder1  -1.94126e-019 -3.10601e-018 -2.51263e-017
LeftArm  -4.07933 24.1973 -79.8385
LeftForeArm  30.41 -20.9216 -3.44328
LeftHand  -0.308382 -0.808718 5.89307
RightShoulder  -4.96962e-017 0 -2.36833e-017
RightArm  -27.5423 -23.2738 75.9187
RightForeArm  54.1232 12.969 1.40792
RightHand  -0.309252 -1.38001 -9.03714
LeftUpLeg  -7.90883 3.09075 1.42864
LeftLeg  5.86711 13.7864 0.520196
LeftFoot  4.67177 0.012714 1.26073
LeftToes  -21.4857 1.83942e-006 5.51297e-008
47
root  -35.9682 34.7239 8.85354 -168.999 81.1772 -178.936
RightUpLeg  -8.67274 -14.6532 -0.946376
RightLeg  5.18363 -0.988223 -0.0248111
RightFoot  5.06056 0.0235885 0.0474736
RightToes  -24.9929 -0.109626 -0.214873
Spine  -2.02565 0.216737 0.266393
Spine1  -4.12958 0.521872 1.0496
HEad  -67.8622 -4.29875 5.93183
LeftShoulder1  -1.94126e-019 -3.10601e-018 -2.51263e-017
LeftArm  -4.24036 23.8541 -79.8838
LeftForeArm  30.7577 -20.6606 -3.42972
LeftHand  -0.308229 -0.773148 5.92104
RightShoulder  -4.96962e-017 0 -2.36833e-017
RightArm  -27.5352 -23.0632 75.8798
RightForeArm  54.2625 12.8243 1.42223
RightHand  -0.308094 -1.4977 -9.05384
LeftUpLeg  -7.86195 3.17967 1.45784
LeftLeg  5.69785 13.8854 0.483218
LeftFoot  4.70845 0.0117017 1.27981
LeftToes  -21.4694 1.83942e-006 5.51297e-008
48
root  -35.9559 34.7275 8.86284 -168.772 81.3674 -178.797
RightUpLeg  -8.73585 -14.5014 -0.904834
RightLeg  5.10351 -0.949316 -0.0224742
RightFoot  5.09395 0.0233306 0.0511589
RightToes  -24.9708 -0.109359 -0.214779
Spine  -2.02462 0.305451 0.278721
Spine1  -4.12594 0.70362 1.07687
HEad  -67.3454 -4.19153 5.57494
LeftShoulder1  -1.94126e-019 -3.10601e-018 -2.51263e-017
LeftArm  -4.7398 23.4629 -80.0019
LeftForeArm  31.1048 -20.2567 -3.38567
LeftHand  -0.318092 -0.816856 6.06847
RightShoulder  -4.96962e-017 0 -2.36833e-017
RightArm  -27.6899 -22.8364 75.8676
RightForeArm  54.6349 12.6507 1.43683
RightHand  -0.312092 -1.51144 -9.20507
LeftUpLeg  -7.83745 3.46381 1.46993
LeftLeg  5.54802 13.7864 0.444109
LeftFoot  4.75367 0.0115954 1.28384
LeftToes  -21.4502 1.83942e-006 5.51297e-008
49
root  -35.9338 34.7279 8.87088 -168.449 81.5445 -178.566
RightUpLeg  -8.79567 -14.4403 -0.847365
RightLeg  5.04134 -0.834811 -0.0187433
RightFoot  5.10945 0.0225932 0.0616965
RightToes  -24.9521 -0.109095 -0.214694
Spine  -2.03384 0.382655 0.290338
Spine1  -4.14488 0.864305 1.09977
HEad  -66.9826 -3.97608 5.31865
LeftShoulder1  -1.94126e-019 -3.10601e-018 -2.51263e-017
LeftArm  -5.48799 23.1383 -80.1645
LeftForeArm  31.4355 -19.8697 -3.32322
LeftHand  -0.32786 -0.736682 6.32676
RightShoulder  -4.96962e-017 0 -2.36833e-017
RightArm  -27.7699 -22.6171 75.9309
RightForeArm  54.9116 12.5961 1.44008
RightHand  -0.314136 -1.46962 -9.1725
LeftUpLeg  -7.84378 3.53055 1.4996
LeftLeg  5.49225 13.8984 0.434253
LeftFoot  4.74867 0.0110493 1.29373
LeftToes  -21.5378 1.83942e-006 5.51297e-008
50
root  -35.9077 34.725 8.87506 -168.147 81.683 -178.368
RightUpLeg  -8.86266 -14.3369 -0.80075
RightLeg  5.00496 -0.805298 -0.0175376
RightFoot  5.08281 0.022283 0.0661288
RightToes  -24.8716 -0.108834 -0.214616
Spine  -2.03516 0.43436 0.302358
Spine1  -4.14982 0.975605 1.12297
HEad  -66.7317 -3.73007 5.17938
LeftShoulder1  -1.94126e-019 -3.10601e-018 -2.51263e-017
LeftArm  -6.67373 22.8245 -80.429
LeftForeArm  31.8293 -19.4428 -3.23871
LeftHand  -0.340578 -0.767442 6.53862
RightShoulder  -4.96962e-017 0 -2.36833e-017
RightArm  -28.0109 -22.3457 76.0979
RightForeArm  55.3567 12.636 1.4325
RightHand  -0.323066 -1.38914 -9.25787
LeftUpLeg  -7.89596 3.64643 1.51383
LeftLeg  5.50498 13.9448 0.438742
LeftFoot  4.71302 0.0112999 1.29023
LeftToes  -21.6045 1.83942e-006 5.51297e-008
51
root  -35.8685 34.7193 8.86911 -168.216 81.6866 -178.534
RightUpLeg  -8.87013 -14.4572 -0.814005
RightLeg  4.95332 -0.685442 -0.0141672
RightFoot  5.02558 0.0213825 0.0789963
RightToes  -24.8725 -0.108575 -0.214545
Spine  -2.0507 0.414072 0.297288
Spine1  -4.18473 0.942833 1.11562
HEad  -66.3242 -3.53117 5.09715
LeftShoulder1  -1.94126e-019 -3.10601e-018 -2.51263e-017
LeftArm  -8.09139 22.7021 -80.7504
LeftForeArm  32.0305 -19.1251 -3.16053
LeftHand  -0.343122 -0.871525 6.48615
RightShoulder  -4.96962e-017 0 -2.36833e-017
RightArm  -28.2912 -22.1174 76.3958
RightForeArm  55.7275 12.7773 1.41445
RightHand  -0.335451 -1.31956 -9.46286
LeftUpLeg  -7.94336 3.52842 1.48778
LeftLeg  5.54802 14.0694 0.453059
LeftFoot  4.62611 0.0118574 1.28095
LeftToes  -21.3592 1.83942e-006 5.51297e-008
